<?xml version="1.0" encoding="UTF-8"?>
<svg version="1.1" xmlns="http://www.w3.org/2000/svg" width="1024" height="1024">
<path d="M0 0 C337.92 0 675.84 0 1024 0 C1024 337.92 1024 675.84 1024 1024 C686.08 1024 348.16 1024 0 1024 C0 686.08 0 348.16 0 0 Z " fill="#FBFBFB" transform="translate(0,0)"/>
<path d="M0 0 C1.18164247 -0.00465992 2.36328494 -0.00931984 3.58073476 -0.01412097 C6.85762747 -0.02400521 10.13418818 -0.02048887 13.4110727 -0.01128729 C16.97721538 -0.00457362 20.54331341 -0.01524554 24.10944659 -0.02368313 C30.35861121 -0.03605679 36.60770077 -0.03725946 42.85687351 -0.0311327 C52.14961829 -0.0220463 61.44229357 -0.0300699 70.73503302 -0.04142394 C87.33163928 -0.06110109 103.92821433 -0.06343627 120.52482948 -0.05822874 C135.04932899 -0.05367356 149.57381613 -0.05426826 164.09831524 -0.06006908 C166.04575867 -0.06082595 167.9932021 -0.06158193 169.94064553 -0.06233703 C172.87517476 -0.06348221 175.80970399 -0.06463208 178.74423321 -0.06579627 C206.03055736 -0.07650298 233.3168774 -0.08122474 260.60320282 -0.07332611 C261.63201847 -0.07302894 262.66083411 -0.07273176 263.72082599 -0.07242559 C272.07582219 -0.06997659 280.43081833 -0.06736503 288.78581448 -0.06474145 C321.37999056 -0.05463788 353.97411513 -0.06299584 386.56828403 -0.086236 C423.17976204 -0.11229826 459.79120904 -0.12515936 496.40269667 -0.11804825 C500.30513226 -0.11733217 504.20756786 -0.11665779 508.11000347 -0.1160078 C509.0708974 -0.115838 510.03179132 -0.11566819 511.02180324 -0.11549323 C525.53709941 -0.11318868 540.05236681 -0.12117464 554.56765652 -0.13429928 C571.07173904 -0.14919546 587.57575406 -0.15007386 604.07983511 -0.13222837 C613.31844325 -0.12265053 622.55689407 -0.12413044 631.79549177 -0.14146306 C637.96489898 -0.1519308 644.13418601 -0.14788289 650.30358133 -0.13198302 C653.81982593 -0.12332837 657.33576165 -0.12098189 660.85199069 -0.13625234 C664.64038378 -0.14933927 668.42793696 -0.13791127 672.21629333 -0.12025452 C673.30698786 -0.12990503 674.39768238 -0.13955554 675.52142826 -0.14949849 C685.12406326 -0.05725799 692.30836814 2.79061218 699.37809849 9.31000423 C705.04337329 15.85160695 707.32176891 23.33376148 707.31150913 31.81099606 C707.31596582 32.95581925 707.31596582 32.95581925 707.32051253 34.12377018 C707.32920559 36.68919581 707.33070832 39.2545748 707.33220005 41.820014 C707.33682794 43.65642554 707.34185256 45.49283611 707.34724522 47.32924557 C707.36037747 52.32544742 707.36681625 57.32163584 707.37125587 62.31785226 C707.37418639 65.44049686 707.37829125 68.56313778 707.38276005 71.68578053 C707.39643963 81.45895482 707.40610298 91.23212071 707.40996194 101.00530392 C707.41443837 112.28023777 707.43196508 123.55505014 707.46096253 134.82994705 C707.48260326 143.54771629 707.49266756 152.26545142 707.49400306 160.98324722 C707.49504974 166.18817179 707.50092798 171.39298222 707.51882267 176.59787846 C707.53534375 181.49886234 707.53743926 186.39964682 707.52868366 191.30064869 C707.52791534 193.09445767 707.53222885 194.88827754 707.54214191 196.68205929 C707.60745183 209.24202714 707.43360079 220.37922045 698.55778599 230.15766048 C690.06995386 238.4697611 679.41880704 239.98359639 667.96764469 239.88647461 C666.79410425 239.89258797 665.62056381 239.89870133 664.41146153 239.90499994 C661.17582491 239.91784431 657.94079442 239.91297942 654.70517554 239.90038831 C651.17684734 239.89109656 647.64859558 239.90508901 644.12028265 239.91602749 C637.94362772 239.93197809 631.7671091 239.93312251 625.5904417 239.92442989 C616.40543091 239.91153835 607.22054299 239.92153491 598.03553955 239.93592944 C581.62962566 239.96084801 565.22376952 239.96275653 548.81784223 239.95465533 C534.46068735 239.94758052 520.10355488 239.94752709 505.74639988 239.95451832 C503.82000257 239.95542965 501.89360525 239.95634041 499.96720794 239.95725061 C497.06426016 239.95863375 494.16131239 239.96002484 491.25836463 239.96143674 C464.27354185 239.97441552 437.28872657 239.9795342 410.30390263 239.96790314 C408.77840877 239.96724618 408.77840877 239.96724618 407.22209685 239.96657595 C398.96353323 239.96296918 390.70496971 239.95913438 382.44640619 239.95528502 C350.22747924 239.94043541 318.00863704 239.94922079 285.78971958 239.97724056 C249.58506472 240.00866646 213.38046002 240.02363933 177.17579126 240.01344055 C173.31577238 240.01240378 169.4557535 240.01141655 165.5957346 240.01045704 C164.645311 240.01020815 163.69488739 240.00995927 162.71566308 240.00970284 C148.36810275 240.00626265 134.02058673 240.0155693 119.67303562 240.03122807 C103.357966 240.04899328 87.04300424 240.04913385 70.72793925 240.02587641 C61.59877737 240.01337348 52.46986331 240.01462805 43.34071595 240.03575727 C37.24056974 240.04848734 31.14061426 240.04299516 25.04048877 240.02277247 C21.56628732 240.01176144 18.09257281 240.00852477 14.61839443 240.02744777 C10.86996739 240.04362672 7.12285771 240.02898414 3.37448978 240.00672913 C2.30405011 240.0187208 1.23361043 240.03071248 0.13073319 240.04306754 C-8.67721527 239.93629973 -17.01766878 237.45837306 -24.20393276 232.19281673 C-31.24566153 224.64810734 -33.97597105 217.75288234 -33.98283291 207.60159969 C-33.98721516 206.81302849 -33.99159742 206.02445729 -33.99611247 205.21199 C-34.00947835 202.56676183 -34.01567438 199.92156696 -34.02180386 197.27631283 C-34.02970661 195.38064073 -34.03797567 193.48497013 -34.04658413 191.58930111 C-34.07278577 185.36080006 -34.08811066 179.13229236 -34.10237026 172.90375423 C-34.10773084 170.75813067 -34.11310836 168.61250714 -34.11850262 166.46688366 C-34.14012926 157.54010697 -34.15886506 148.61333208 -34.17012501 139.68653584 C-34.18635847 126.90164858 -34.21952431 114.11706551 -34.27652586 101.33229291 C-34.31525517 92.3384998 -34.3347613 83.34478795 -34.34004557 74.35091364 C-34.3436951 68.98159253 -34.35567427 63.61259598 -34.38814831 58.24336529 C-34.41828113 53.18879376 -34.42452207 48.13474231 -34.41276455 43.08010006 C-34.41254425 41.22983643 -34.42081323 39.37954829 -34.43841839 37.5293684 C-34.53979656 26.25728577 -34.15799948 17.80007215 -26.65315151 8.75922298 C-25.94803432 8.15980892 -25.24291714 7.56039486 -24.51643276 6.94281673 C-23.81904995 6.3253558 -23.12166714 5.70789486 -22.40315151 5.07172298 C-15.1268773 0.2908023 -8.46991685 -0.05220995 0 0 Z " fill="#015FAD" transform="translate(175.828932762146,392.61968326568604)"/>
<path d="M0 0 C9.24 0 18.48 0 28 0 C32.49899802 11.24749506 32.49899802 11.24749506 34.09057617 16.16821289 C34.44741989 17.26537125 34.80426361 18.3625296 35.17192078 19.49293518 C35.54186661 20.64124313 35.91181244 21.78955109 36.29296875 22.97265625 C36.88021477 24.77904823 36.88021477 24.77904823 37.47932434 26.62193298 C38.71858383 30.43442601 39.9536042 34.24826901 41.1875 38.0625 C42.82309971 43.11710092 44.46324901 48.17020112 46.10546875 53.22265625 C46.48148727 54.38918228 46.8575058 55.55570831 47.24491882 56.75758362 C47.59230606 57.82637253 47.9396933 58.89516144 48.29760742 59.99633789 C48.60309006 60.94102432 48.90857269 61.88571075 49.22331238 62.85902405 C49.81197422 64.95316648 49.81197422 64.95316648 51 66 C52.1049036 62.41689353 53.20872659 58.83345477 54.3125 55.25 C54.83577881 53.55302979 54.83577881 53.55302979 55.36962891 51.82177734 C57.31472071 45.5059201 59.24938638 39.18714219 61.16429138 32.86206055 C62.15457743 29.59110405 63.14732424 26.32089592 64.13998413 23.05065918 C64.62908734 21.43654752 65.11690576 19.82204598 65.60342407 18.20715332 C66.29229928 15.92096951 66.98556875 13.63615883 67.6796875 11.3515625 C67.88461319 10.66718109 68.08953888 9.98279968 68.30067444 9.27767944 C69.31028107 5.96950657 70.44246284 3.11507432 72 0 C81.24 0 90.48 0 100 0 C100 35.31 100 70.62 100 107 C93.4 107 86.8 107 80 107 C79.67 83.9 79.34 60.8 79 37 C71.80317556 58.6300718 71.80317556 58.6300718 64.60961914 80.26123047 C63.21765137 84.44165039 63.21765137 84.44165039 62.56590271 86.3977356 C62.11039445 87.7657973 61.65548108 89.13405717 61.20103455 90.50247192 C60.51310236 92.57356677 59.82329303 94.64402761 59.13305664 96.71435547 C58.74444962 97.88239716 58.35584259 99.05043884 57.95545959 100.25387573 C57 103 57 103 56 105 C51.71 105 47.42 105 43 105 C35.66666667 83 28.33333333 61 21 39 C20.67 61.44 20.34 83.88 20 107 C13.4 107 6.8 107 0 107 C0 71.69 0 36.38 0 0 Z " fill="#F6F9FA" transform="translate(193,454)"/>
<path d="M0 0 C51.38952465 0 51.38952465 0 64.75 12.1875 C68.55139678 16.25288267 70.98281679 20.83960323 73 26 C73.26256592 26.66966797 73.52513184 27.33933594 73.7956543 28.02929688 C76.44137436 35.61040777 76.41173654 42.91225979 76.3125 50.875 C76.31572266 52.16019531 76.31894531 53.44539063 76.32226562 54.76953125 C76.24081777 69.35610216 74.68715423 83.1005347 64.8203125 94.5234375 C62.64122976 96.55171867 60.4453495 98.30541569 58 100 C57.40960938 100.41636719 56.81921875 100.83273437 56.2109375 101.26171875 C40.70562845 110.44878513 15.63590239 107 0 107 C0 71.69 0 36.38 0 0 Z " fill="#F9FAFB" transform="translate(386,454)"/>
<path d="M0 0 C49.16176471 0 49.16176471 0 60.7421875 10.59375 C67.65736466 17.88736969 69.6096836 26.17897186 69.47045898 36.02709961 C69.00311629 46.55664203 65.40459571 53.70316348 58 61 C56.33278914 62.6661223 54.66606904 64.33273592 53 66 C53.47421387 66.99330322 53.94842773 67.98660645 54.43701172 69.01000977 C56.20550002 72.71803614 57.96682461 76.42942834 59.72607422 80.1418457 C60.48651223 81.744001 61.24885494 83.34525377 62.01318359 84.94555664 C63.11545363 87.25428782 64.21069054 89.56624551 65.3046875 91.87890625 C65.6443454 92.58648575 65.9840033 93.29406525 66.33395386 94.02308655 C66.65413483 94.7032634 66.9743158 95.38344025 67.30419922 96.08422852 C67.58399628 96.67269058 67.86379333 97.26115265 68.15206909 97.8674469 C69.33024838 100.83057735 70.12397775 103.93392213 71 107 C63.74 107 56.48 107 49 107 C43.04973764 94.45270763 37.49667283 81.75183858 32 69 C28.37 68.67 24.74 68.34 21 68 C21 80.87 21 93.74 21 107 C14.07 107 7.14 107 0 107 C0 71.69 0 36.38 0 0 Z " fill="#F8FAFB" transform="translate(695,454)"/>
<path d="M0 0 C9.24 0 18.48 0 28 0 C31.37512246 10.12536739 31.37512246 10.12536739 32.54296875 14.34399414 C32.80791641 15.29668686 33.07286407 16.24937958 33.34584045 17.23094177 C33.6235881 18.23883255 33.90133575 19.24672333 34.1875 20.28515625 C34.48679916 21.36390518 34.78609833 22.44265411 35.09446716 23.55409241 C36.06542902 27.05622159 37.03292692 30.55929515 38 34.0625 C38.66924463 36.48228887 39.33859771 38.90204775 40.00805664 41.32177734 C41.02283193 44.99065441 42.03717332 48.65964908 43.05030823 52.32897949 C44.89813899 59.02118248 46.75306194 65.71131709 48.61947632 72.39836121 C49.65540219 76.1114353 50.68737865 79.82559936 51.71850586 83.54000854 C52.19563645 85.25543072 52.67446224 86.97038234 53.1550293 88.68484497 C53.81512678 91.04121316 54.46889131 93.39924902 55.12109375 95.7578125 C55.41058144 96.78214134 55.41058144 96.78214134 55.70591736 97.8271637 C56.59378219 101.0631124 57 103.60251803 57 107 C50.07 107 43.14 107 36 107 C34.02 99.08 32.04 91.16 30 83 C19.77 82.67 9.54 82.34 -1 82 C-1.33 84.31 -1.66 86.62 -2 89 C-2.59143639 91.97644092 -3.29760971 94.92292485 -4 97.875 C-4.17789063 98.64585937 -4.35578125 99.41671875 -4.5390625 100.2109375 C-5.87539603 105.87539603 -5.87539603 105.87539603 -7 107 C-8.56172745 107.08685603 -10.12729344 107.10702219 -11.69140625 107.09765625 C-12.63564453 107.09443359 -13.57988281 107.09121094 -14.55273438 107.08789062 C-15.54595703 107.07951172 -16.53917969 107.07113281 -17.5625 107.0625 C-18.55958984 107.05798828 -19.55667969 107.05347656 -20.58398438 107.04882812 C-23.05604849 107.03700007 -25.52799518 107.02051849 -28 107 C-26.24928428 97.40996831 -23.73831282 88.0436707 -21.25 78.625 C-20.7728867 76.81113298 -20.29583746 74.99724911 -19.81884766 73.18334961 C-15.7214553 57.62958792 -11.55383014 42.09454728 -7.375 26.5625 C-7.06373169 25.40510315 -6.75246338 24.2477063 -6.4317627 23.05523682 C-5.54686197 19.76696631 -4.66048905 16.47909712 -3.7734375 13.19140625 C-3.50725616 12.20269028 -3.24107483 11.2139743 -2.96682739 10.19529724 C-2.72173431 9.28852737 -2.47664124 8.38175751 -2.22412109 7.44750977 C-2.01081146 6.65707779 -1.79750183 5.86664581 -1.57772827 5.05226135 C-1.09964748 3.35397725 -0.55791847 1.6737554 0 0 Z " fill="#F9FAFB" transform="translate(626,454)"/>
<path d="M0 0 C8.43950329 6.69339916 11.74256552 15.01397945 13.0625 25.5 C13.31 27.789375 13.5575 30.07875 13.8125 32.4375 C6.8825 32.4375 -0.0475 32.4375 -7.1875 32.4375 C-7.620625 30.725625 -8.05375 29.01375 -8.5 27.25 C-10.52872363 19.59244896 -10.52872363 19.59244896 -16.375 14.625 C-21.98728218 12.87691211 -26.54793862 12.32825162 -31.9375 15 C-37.05730264 18.34711471 -39.03720192 23.07101873 -40.27734375 28.83984375 C-41.48107182 35.17928486 -41.48060922 41.44094847 -41.4375 47.875 C-41.44523438 49.02548828 -41.45296875 50.17597656 -41.4609375 51.36132812 C-41.43848125 61.27014843 -41.13806656 72.06335832 -35.1875 80.4375 C-31.69865958 83.76020516 -28.95174491 84.70919069 -24.25 84.9375 C-19.13640896 84.70646426 -16.23542129 83.57670426 -12.1875 80.4375 C-9.17087543 75.86055237 -8.57316519 71.98016075 -7.1875 66.4375 C-0.2575 66.4375 6.6725 66.4375 13.8125 66.4375 C12.25881339 78.6080451 10.3504601 89.00729511 0.8125 97.4375 C-9.03695017 104.3994315 -19.36512829 105.44313743 -31.1875 104.4375 C-37.48213201 102.94828218 -43.10757047 100.47835304 -48.1875 96.4375 C-49.03054688 95.76847656 -49.03054688 95.76847656 -49.890625 95.0859375 C-58.22930515 87.72614589 -62.3795749 76.17347724 -63.3888092 65.26077271 C-63.48058541 63.07280403 -63.51688634 60.89299193 -63.5234375 58.703125 C-63.5300943 57.90324158 -63.5367511 57.10335815 -63.54360962 56.27923584 C-63.55365937 54.59861522 -63.55842904 52.91795532 -63.55810547 51.23730469 C-63.56246641 48.70699085 -63.59883264 46.17844267 -63.63671875 43.6484375 C-63.73846061 29.03319693 -61.36302084 15.33801986 -51.1171875 4.18359375 C-37.23847241 -8.94557401 -15.98204551 -10.82654696 0 0 Z " fill="#F9FAFB" transform="translate(578.1875,458.5625)"/>
<path d="M0 0 C19.14 0 38.28 0 58 0 C58 6.27 58 12.54 58 19 C46.12 19 34.24 19 22 19 C22 26.92 22 34.84 22 43 C32.23 43 42.46 43 53 43 C53 49.27 53 55.54 53 62 C42.77 62 32.54 62 22 62 C22 70.58 22 79.16 22 88 C34.21 88 46.42 88 59 88 C59 94.27 59 100.54 59 107 C39.53 107 20.06 107 0 107 C0 71.69 0 36.38 0 0 Z " fill="#F6F9FA" transform="translate(310,454)"/>
<path d="M0 0 C18.81 0 37.62 0 57 0 C57 6.27 57 12.54 57 19 C45.12 19 33.24 19 21 19 C21 26.92 21 34.84 21 43 C31.56 43 42.12 43 53 43 C53 49.27 53 55.54 53 62 C42.44 62 31.88 62 21 62 C21 70.58 21 79.16 21 88 C33.21 88 45.42 88 58 88 C58 94.27 58 100.54 58 107 C38.86 107 19.72 107 0 107 C0 71.69 0 36.38 0 0 Z " fill="#F9FBFB" transform="translate(781,454)"/>
<path d="M0 0 C6.93 0 13.86 0 21 0 C21 35.31 21 70.62 21 107 C14.07 107 7.14 107 0 107 C0 71.69 0 36.38 0 0 Z " fill="#FAFBFB" transform="translate(478,454)"/>
<path d="M0 0 C20.29864958 0 20.29864958 0 24.53125 3.47265625 C25.25828125 4.22869141 25.25828125 4.22869141 26 5 C26.4846875 5.47308594 26.969375 5.94617188 27.46875 6.43359375 C35.21324407 15.46133248 34.75777496 29.66824357 34.16845703 40.90966797 C33.55658336 48.5022221 31.66709205 57.49553973 26 63 C18 67 18 67 0 67 C0 44.89 0 22.78 0 0 Z " fill="#015DAC" transform="translate(407,474)"/>
<path d="M0 0 C18.35135135 0 18.35135135 0 23 4 C26.10509674 8.12534281 26.43235422 11.32773968 26.4375 16.4375 C26.46650391 18.35369141 26.46650391 18.35369141 26.49609375 20.30859375 C25.91239965 24.65182934 24.85670294 26.69649161 22 30 C16 33 16 33 0 33 C0 22.11 0 11.22 0 0 Z " fill="#015AAA" transform="translate(716,472)"/>
<path d="M0 0 C2.31574606 3.47361909 3.15963373 6.85553387 4.1640625 10.84375 C4.36099701 11.60925171 4.55793152 12.37475342 4.76083374 13.16345215 C5.1753454 14.77997555 5.58703326 16.3972253 5.99609375 18.01513672 C6.6230865 20.49243959 7.26004475 22.96701954 7.8984375 25.44140625 C8.30007317 27.01286914 8.70113434 28.58447899 9.1015625 30.15625 C9.2921524 30.89693726 9.48274231 31.63762451 9.67910767 32.40075684 C10.42027384 35.34789237 11 37.94784613 11 41 C4.07 41 -2.86 41 -10 41 C-7.04003919 27.22479776 -3.63332783 13.61223721 0 0 Z " fill="#055CAB" transform="translate(640,478)"/>
<path d="M0 0 C10.23 0 20.46 0 31 0 C31.33 0.66 31.66 1.32 32 2 C22.1 2 12.2 2 2 2 C2 9.26 2 16.52 2 24 C13.55 24 25.1 24 37 24 C37 24.33 37 24.66 37 25 C24.79 25.33 12.58 25.66 0 26 C0 17.42 0 8.84 0 0 Z " fill="#0249A1" transform="translate(802,516)"/>
<path d="M0 0 C0.66 0.33 1.32 0.66 2 1 C2.91739307 4.62993184 3.40455491 8.29973411 4 12 C-2.27 12 -8.54 12 -15 12 C-15 11.34 -15 10.68 -15 10 C-9.39 10 -3.78 10 2 10 C1.34 6.7 0.68 3.4 0 0 Z " fill="#07479F" transform="translate(647,507)"/>
<path d="M0 0 C1.39393451 4.42372097 0.14300014 7.78729791 -1.25 12.0625 C-1.46785156 12.78244141 -1.68570312 13.50238281 -1.91015625 14.24414062 C-3.96115631 20.70299168 -3.96115631 20.70299168 -7 23 C-6.40218212 17.76909357 -5.21833115 13.09343177 -3.5 8.125 C-3.27441406 7.44953125 -3.04882812 6.7740625 -2.81640625 6.078125 C-1.1409337 1.1409337 -1.1409337 1.1409337 0 0 Z " fill="#0B4BA1" transform="translate(269,499)"/>
<path d="M0 0 C2.00293347 3.00440021 2.49271626 4.70993945 3.125 8.1875 C3.29257812 9.08855469 3.46015625 9.98960937 3.6328125 10.91796875 C3.75398437 11.60503906 3.87515625 12.29210937 4 13 C3.01 13 2.02 13 1 13 C1 12.34 1 11.68 1 11 C0.34 11 -0.32 11 -1 11 C-2.60080151 6.99799622 -1.29279692 3.95443764 0 0 Z " fill="#1050A4" transform="translate(640,478)"/>
<path d="M0 0 C-1.11375 0.2475 -2.2275 0.495 -3.375 0.75 C-7.04087715 1.55970627 -7.04087715 1.55970627 -8.0625 3.9375 C-8.371875 4.618125 -8.68125 5.29875 -9 6 C-12 7.6875 -12 7.6875 -15 9 C-15.99 9.495 -15.99 9.495 -17 10 C-15.59127675 6.63512219 -14.00344528 4.94290543 -11.0625 2.8125 C-10.37285156 2.30332031 -9.68320313 1.79414063 -8.97265625 1.26953125 C-5.63840753 -0.87627238 -3.69831346 -1.14775245 0 0 Z " fill="#094AA2" transform="translate(165,395)"/>
<path d="M0 0 C1.72274487 2.58411731 2.68895522 4.54902656 3.6875 7.4375 C3.95949219 8.19933594 4.23148438 8.96117187 4.51171875 9.74609375 C5.04729142 12.21829721 4.80445309 13.62983284 4 16 C0.20832116 11.2298234 -1.06455524 7.13274783 -1 1 C-0.67 0.67 -0.34 0.34 0 0 Z " fill="#0C4EA3" transform="translate(215,496)"/>
<path d="M0 0 C0.9952829 3.9811316 1.10924963 4.56540019 -0.3125 8.0625 C-0.57675781 8.73410156 -0.84101562 9.40570312 -1.11328125 10.09765625 C-2 12 -2 12 -4 15 C-4.66 14.67 -5.32 14.34 -6 14 C-5.34 12.35 -4.68 10.7 -4 9 C-3.34 9 -2.68 9 -2 9 C-1.34 6.03 -0.68 3.06 0 0 Z " fill="#07439C" transform="translate(570,525)"/>
<path d="M0 0 C2.28877281 2.28877281 3.90978598 3.95532166 4.1953125 7.26171875 C4.16050781 8.46248047 4.16050781 8.46248047 4.125 9.6875 C4.10695313 10.49574219 4.08890625 11.30398438 4.0703125 12.13671875 C4.03550781 13.05904297 4.03550781 13.05904297 4 14 C1.01520806 9.52281208 0 5.36175907 0 0 Z " fill="#05439D" transform="translate(668,502)"/>
<path d="M0 0 C1.22419811 3.67259434 0.54143712 4.57458418 -1 8 C-1.33 8.99 -1.66 9.98 -2 11 C-2.66 11 -3.32 11 -4 11 C-3.48964169 6.6109185 -2.47785723 3.66291938 0 0 Z " fill="#0F50A3" transform="translate(146,406)"/>
<path d="M0 0 C3 3 3 3 3.375 6.0625 C3.25125 7.031875 3.1275 8.00125 3 9 C2.01 9.66 1.02 10.32 0 11 C0 7.37 0 3.74 0 0 Z " fill="#B9D7E7" transform="translate(742,484)"/>
<path d="M0 0 C0.33 0.66 0.66 1.32 1 2 C0.2884375 2.6496875 0.2884375 2.6496875 -0.4375 3.3125 C-2.23686957 5.02309613 -2.23686957 5.02309613 -3 8 C-3.99 8.33 -4.98 8.66 -6 9 C-5.52797514 4.75177626 -3.03344482 2.80010291 0 0 Z " fill="#07449E" transform="translate(546,473)"/>
</svg>
